<svg width="159" height="24" viewBox="0 0 159 24" fill="none" xmlns="http://www.w3.org/2000/svg">
<path d="M55.0178 16.9798H51.5749V10.7686C51.5749 8.94408 50.7676 8.03184 49.153 8.03184C48.3774 8.01597 47.7363 8.29361 47.2298 8.86476C46.7391 9.4359 46.4937 10.1181 46.4937 10.9114V16.9798H43.1221V5.2237H46.2088L46.3275 6.72296C47.2614 5.50134 48.5278 4.9064 50.1265 4.93813C53.3873 4.93813 55.0178 6.87368 55.0178 10.7448V16.9798Z" fill="white"/>
<path d="M61.1724 5.19991H57.7533V16.9798H61.1724V5.19991ZM58.1095 3.53406C57.7137 3.18503 57.5159 2.70908 57.5159 2.1062C57.5159 1.50332 57.7137 1.02737 58.1095 0.678334C58.521 0.329302 58.9722 0.154785 59.4629 0.154785C59.9536 0.154785 60.3968 0.329302 60.7925 0.678334C61.2041 1.02737 61.4099 1.50332 61.4099 2.1062C61.4099 2.70908 61.2041 3.18503 60.7925 3.53406C60.3968 3.8831 59.9536 4.05761 59.4629 4.05761C58.9722 4.05761 58.521 3.8831 58.1095 3.53406Z" fill="white"/>
<path d="M69.7113 8.07943C68.8407 8.07943 68.1442 8.365 67.6219 8.93615C67.0995 9.49143 66.8383 10.2133 66.8383 11.1017C66.8383 11.9743 67.0916 12.6962 67.5981 13.2673C68.1205 13.8385 68.8249 14.1241 69.7113 14.1241C70.5819 14.1241 71.3259 13.8781 71.9432 13.3863C72.5606 12.8945 72.8693 12.133 72.8693 11.1017C72.8693 10.1657 72.5527 9.42797 71.9195 8.88856C71.2863 8.34914 70.5503 8.07943 69.7113 8.07943ZM72.9167 0.345166H76.3596V16.9798H73.2966L73.0829 15.4805C72.1965 16.6228 70.8985 17.194 69.1889 17.194C67.4636 17.194 66.0627 16.6387 64.9863 15.5281C63.9257 14.4017 63.3954 12.9262 63.3954 11.1017C63.3954 9.22966 63.9336 7.74626 65.01 6.65157C66.0864 5.54101 67.4952 4.98573 69.2364 4.98573C70.7877 4.98573 72.0145 5.54101 72.9167 6.65157V0.345166Z" fill="white"/>
<path d="M78.7494 18.598H81.9311C82.0419 20.1846 83.0233 20.9778 84.8753 20.9778C85.6826 20.9778 86.3633 20.7874 86.9173 20.4067C87.4871 20.0418 87.7721 19.5103 87.7721 18.8122C87.7721 17.4637 86.8223 16.7894 84.9228 16.7894C82.9916 16.7894 81.4483 16.2579 80.2927 15.195C79.153 14.1161 78.5832 12.6724 78.5832 10.8638C78.5832 8.95995 79.2005 7.48449 80.4352 6.43739C81.6699 5.39029 83.1657 4.86674 84.9228 4.86674C86.1416 4.86674 87.0597 5.08092 87.6771 5.50928L88.9593 3.84343L91.4286 5.74725L89.9328 7.53208C90.7875 8.56332 91.1912 9.68975 91.1437 10.9114C91.0962 12.8152 90.2572 14.1875 88.6268 15.0284C90.3681 15.8058 91.2387 17.067 91.2387 18.8122C91.2387 20.4622 90.6134 21.7393 89.3629 22.6437C88.1124 23.548 86.6165 24.0001 84.8753 24.0001C82.865 24.0001 81.3296 23.5242 80.269 22.5723C79.2243 21.6362 78.7177 20.3115 78.7494 18.598ZM84.9228 7.91285C84.0205 7.91285 83.2845 8.17462 82.7146 8.69817C82.1606 9.22172 81.8836 9.94359 81.8836 10.8638C81.8836 11.7046 82.1685 12.3868 82.7384 12.9104C83.324 13.4181 84.0522 13.6719 84.9228 13.6719C85.7459 13.6719 86.4424 13.426 87.0123 12.9342C87.5821 12.4424 87.867 11.7522 87.867 10.8638C87.867 10.0388 87.5821 9.34071 87.0123 8.76957C86.4582 8.19842 85.7617 7.91285 84.9228 7.91285Z" fill="white"/>
<path d="M105.068 12.2202H96.4491C96.5441 12.8231 96.8686 13.3229 97.4226 13.7195C97.9767 14.1003 98.7127 14.2906 99.6308 14.2906C100.945 14.2906 101.958 13.9813 102.67 13.3625L104.593 15.5043C103.422 16.6625 101.744 17.2416 99.5596 17.2416C97.4701 17.2416 95.8476 16.6783 94.6921 15.5519C93.5524 14.4255 92.9825 12.9024 92.9825 10.9828C92.9825 9.17413 93.5445 7.71453 94.6684 6.60397C95.7922 5.47755 97.3039 4.91433 99.2034 4.91433C101.277 4.91433 102.86 5.54894 103.952 6.81815C105.06 8.08736 105.432 9.88806 105.068 12.2202ZM96.4491 9.72148H102.005C101.974 9.1186 101.689 8.65851 101.15 8.34121C100.612 8.00804 99.9632 7.84145 99.2034 7.84145C98.5228 7.84145 97.9371 8.00804 97.4464 8.34121C96.9557 8.67438 96.6233 9.13447 96.4491 9.72148Z" fill="white"/>
<path d="M0 14.3256C6.20399 11.4667 12.7684 7.16578 16.4796 1.44125L16.4895 1.42596L16.5195 1.44125L21.4896 3.97461V12.8811C24.2424 10.0656 28.5958 7.79225 32.7114 5.66684L38.0513 8.87869C31.8689 11.7494 25.3435 16.0462 21.5257 21.7599L16.5256 19.1653V10.3416C13.7728 13.1479 9.51283 15.5677 5.39722 17.7024L0 14.3256Z" fill="white"/>
<path d="M116.644 0H118.309L109.65 20.0936H108.009L116.644 0Z" fill="white"/>
<path d="M125.098 7.67515C123.813 7.67515 122.75 8.08036 121.91 8.89078C121.085 9.6853 120.673 10.8056 120.673 12.2516C120.673 13.6818 121.093 14.8021 121.934 15.6125C122.774 16.4229 123.829 16.8281 125.098 16.8281C126.366 16.8281 127.421 16.3991 128.262 15.541C129.118 14.6829 129.546 13.5785 129.546 12.2278C129.546 10.893 129.118 9.80448 128.262 8.96228C127.421 8.10419 126.366 7.67515 125.098 7.67515ZM129.618 1.45399H131.211V18.1391H129.665L129.618 15.7793C129.158 16.6056 128.507 17.2413 127.667 17.6862C126.842 18.1311 125.954 18.3536 125.002 18.3536C123.274 18.3536 121.854 17.8133 120.744 16.7328C119.634 15.6522 119.079 14.1585 119.079 12.2516C119.079 10.3448 119.634 8.85105 120.744 7.77049C121.854 6.68993 123.274 6.14965 125.002 6.14965C125.97 6.14965 126.874 6.37212 127.714 6.81706C128.555 7.2461 129.189 7.87378 129.618 8.70009V1.45399Z" fill="white"/>
<path d="M146.026 12.919H135.797C135.908 14.1267 136.376 15.0802 137.201 15.7793C138.041 16.4785 139.056 16.8281 140.246 16.8281C140.991 16.8281 141.736 16.6851 142.482 16.3991C143.243 16.113 143.822 15.7158 144.218 15.2073L145.289 16.1607C144.734 16.8599 143.996 17.4002 143.077 17.7816C142.157 18.1629 141.213 18.3536 140.246 18.3536C138.469 18.3536 137.01 17.7974 135.868 16.6851C134.727 15.5728 134.156 14.087 134.156 12.2278C134.156 10.4639 134.719 9.00996 135.845 7.86583C136.987 6.72171 138.43 6.14965 140.174 6.14965C142.046 6.14965 143.544 6.72966 144.67 7.88967C145.796 9.03379 146.248 10.7102 146.026 12.919ZM135.797 11.5604H144.528C144.512 10.3209 144.092 9.3516 143.267 8.65242C142.442 7.93734 141.419 7.5798 140.198 7.5798C139.009 7.5798 138.017 7.9294 137.224 8.62858C136.431 9.32777 135.956 10.305 135.797 11.5604Z" fill="white"/>
<path d="M157.24 6.36418H159L154.052 18.1629H152.291L147.343 6.36418H149.104L153.172 16.3991L157.24 6.36418Z" fill="white"/>
</svg>
