<svg width="160" height="25" viewBox="0 0 160 25" fill="none" xmlns="http://www.w3.org/2000/svg">
<path d="M55.1273 17.7263H51.6778V11.5153C51.6778 9.69088 50.869 8.77867 49.2512 8.77867C48.4741 8.7628 47.8318 9.04043 47.3243 9.61156C46.8326 10.1827 46.5868 10.8649 46.5868 11.6581V17.7263H43.2086V5.97062H46.3013L46.4203 7.46983C47.356 6.24825 48.6248 5.65332 50.2266 5.68505C53.4938 5.68505 55.1273 7.62054 55.1273 11.4915V17.7263Z" fill="#00489D"/>
<path d="M61.2939 5.94682H57.8682V17.7263H61.2939V5.94682ZM58.225 4.28103C57.8286 3.93201 57.6303 3.45607 57.6303 2.85321C57.6303 2.25035 57.8286 1.77441 58.225 1.42539C58.6374 1.07637 59.0894 0.901855 59.5811 0.901855C60.0727 0.901855 60.5168 1.07637 60.9133 1.42539C61.3257 1.77441 61.5318 2.25035 61.5318 2.85321C61.5318 3.45607 61.3257 3.93201 60.9133 4.28103C60.5168 4.63005 60.0727 4.80456 59.5811 4.80456C59.0894 4.80456 58.6374 4.63005 58.225 4.28103Z" fill="#00489D"/>
<path d="M69.8494 8.82626C68.9771 8.82626 68.2792 9.11182 67.7559 9.68295C67.2325 10.2382 66.9708 10.9601 66.9708 11.8485C66.9708 12.721 67.2246 13.4429 67.7321 14.014C68.2555 14.5851 68.9612 14.8707 69.8494 14.8707C70.7217 14.8707 71.4671 14.6248 72.0856 14.133C72.7042 13.6412 73.0134 12.8797 73.0134 11.8485C73.0134 10.9125 72.6962 10.1748 72.0618 9.63536C71.4274 9.09596 70.69 8.82626 69.8494 8.82626ZM73.061 1.09223H76.5105V17.7263H73.4416L73.2275 16.2271C72.3394 17.3694 71.0389 17.9405 69.326 17.9405C67.5973 17.9405 66.1937 17.3853 65.1152 16.2747C64.0526 15.1483 63.5213 13.6729 63.5213 11.8485C63.5213 9.97645 64.0605 8.4931 65.139 7.39844C66.2175 6.28791 67.629 5.73265 69.3736 5.73265C70.9278 5.73265 72.157 6.28791 73.061 7.39844V1.09223Z" fill="#00489D"/>
<path d="M78.905 19.3445H82.0928C82.2038 20.931 83.1871 21.7242 85.0427 21.7242C85.8516 21.7242 86.5336 21.5339 87.0887 21.1531C87.6596 20.7882 87.9451 20.2568 87.9451 19.5587C87.9451 18.2102 86.9935 17.536 85.0903 17.536C83.1554 17.536 81.6091 17.0045 80.4513 15.9416C79.3094 14.8628 78.7384 13.4191 78.7384 11.6105C78.7384 9.70675 79.357 8.23133 80.594 7.18427C81.8311 6.1372 83.3299 5.61366 85.0903 5.61366C86.3115 5.61366 87.2314 5.82784 87.85 6.25618L89.1346 4.59039L91.6087 6.49415L90.11 8.27893C90.9664 9.31013 91.3709 10.4365 91.3233 11.6581C91.2757 13.5619 90.4351 14.9342 88.8015 15.775C90.5461 16.5524 91.4184 17.8136 91.4184 19.5587C91.4184 21.2086 90.792 22.4857 89.539 23.39C88.2861 24.2943 86.7873 24.7465 85.0427 24.7465C83.0285 24.7465 81.4901 24.2705 80.4275 23.3186C79.3808 22.3826 78.8732 21.0579 78.905 19.3445ZM85.0903 8.65968C84.1863 8.65968 83.4488 8.92145 82.8779 9.44498C82.3228 9.96852 82.0452 10.6904 82.0452 11.6105C82.0452 12.4513 82.3307 13.1335 82.9017 13.6571C83.4885 14.1647 84.218 14.4186 85.0903 14.4186C85.915 14.4186 86.6129 14.1727 87.1838 13.6808C87.7548 13.189 88.0403 12.4989 88.0403 11.6105C88.0403 10.7855 87.7548 10.0875 87.1838 9.51637C86.6287 8.94524 85.9309 8.65968 85.0903 8.65968Z" fill="#00489D"/>
<path d="M105.275 12.9669H96.639C96.7342 13.5698 97.0593 14.0695 97.6144 14.4662C98.1695 14.8469 98.907 15.0373 99.8269 15.0373C101.143 15.0373 102.158 14.7279 102.872 14.1092L104.799 16.2509C103.625 17.409 101.944 17.9881 99.7555 17.9881C97.662 17.9881 96.0363 17.4249 94.8786 16.2985C93.7366 15.1721 93.1657 13.6491 93.1657 11.7295C93.1657 9.92092 93.7287 8.46137 94.8548 7.35084C95.9808 6.22445 97.4954 5.66126 99.3986 5.66126C101.476 5.66126 103.062 6.29584 104.157 7.56502C105.267 8.83419 105.64 10.6348 105.275 12.9669ZM96.639 10.4683H102.206C102.174 9.86539 101.889 9.40532 101.349 9.08803C100.81 8.75487 100.16 8.58829 99.3986 8.58829C98.7167 8.58829 98.1298 8.75487 97.6382 9.08803C97.1465 9.42118 96.8135 9.88126 96.639 10.4683Z" fill="#00489D"/>
<path d="M0 15.0721C6.21601 12.2133 12.7931 7.91249 16.5115 2.18814L16.5215 2.17285L16.5515 2.18814L21.5312 4.72142V13.6276C24.2893 10.8122 28.6512 8.53894 32.7748 6.4136L38.125 9.62535C31.9306 12.4959 25.3926 16.7926 21.5674 22.5062L16.5576 19.9116V11.0882C13.7995 13.8944 9.53126 16.3142 5.40768 18.4487L0 15.0721Z" fill="#F6652F"/>
<path d="M116.872 0.746582H118.54L109.864 20.8396H108.219L116.872 0.746582Z" fill="#F6652F"/>
<path d="M125.342 8.42149C124.054 8.42149 122.99 8.82669 122.148 9.63708C121.321 10.4316 120.908 11.5518 120.908 12.9978C120.908 14.4279 121.329 15.5482 122.171 16.3586C123.014 17.169 124.07 17.5742 125.342 17.5742C126.613 17.5742 127.669 17.1451 128.512 16.2871C129.37 15.429 129.799 14.3247 129.799 12.974C129.799 11.6392 129.37 10.5508 128.512 9.70859C127.669 8.85053 126.613 8.42149 125.342 8.42149ZM129.87 2.20052H131.467V18.8851H129.918L129.87 16.5254C129.409 17.3517 128.758 17.9873 127.916 18.4322C127.089 18.8772 126.2 19.0996 125.246 19.0996C123.514 19.0996 122.092 18.5594 120.98 17.4788C119.867 16.3983 119.311 14.9046 119.311 12.9978C119.311 11.091 119.867 9.59736 120.98 8.51683C122.092 7.43631 123.514 6.89604 125.246 6.89604C126.216 6.89604 127.121 7.11851 127.963 7.56343C128.806 7.99246 129.441 8.62012 129.87 9.4464V2.20052Z" fill="#F6652F"/>
<path d="M146.311 13.6652H136.062C136.173 14.8729 136.642 15.8263 137.468 16.5254C138.31 17.2246 139.327 17.5742 140.519 17.5742C141.266 17.5742 142.013 17.4312 142.759 17.1451C143.522 16.8591 144.102 16.4619 144.499 15.9534L145.572 16.9068C145.016 17.606 144.277 18.1462 143.355 18.5276C142.434 18.9089 141.488 19.0996 140.519 19.0996C138.739 19.0996 137.277 18.5435 136.133 17.4312C134.989 16.3189 134.417 14.8331 134.417 12.974C134.417 11.2102 134.981 9.75626 136.109 8.61217C137.254 7.46809 138.7 6.89604 140.447 6.89604C142.322 6.89604 143.824 7.47603 144.952 8.63601C146.08 9.7801 146.533 11.4565 146.311 13.6652ZM136.062 12.3066H144.809C144.793 11.0672 144.372 10.0979 143.546 9.39873C142.72 8.68368 141.695 8.32615 140.471 8.32615C139.28 8.32615 138.286 8.67573 137.492 9.3749C136.697 10.0741 136.221 11.0513 136.062 12.3066Z" fill="#F6652F"/>
<path d="M157.546 7.11056H159.31L154.352 18.9089H152.588L147.63 7.11056H149.394L153.47 17.1451L157.546 7.11056Z" fill="#F6652F"/>
</svg>
